<svg xmlns="http://www.w3.org/2000/svg" viewBox="0 0 643.21 32.66"><defs><style>.cls-1{fill:#d3d3d3;}.cls-2{fill:#e52e25;}</style></defs><title>oleg-chursin-travel-photography-logo-hr</title><g id="Layer_2" data-name="Layer 2"><g id="Layer_1-2" data-name="Layer 1"><path class="cls-1" d="M.7,9.43A11.57,11.57,0,0,1,2.81,5.53a10.28,10.28,0,0,1,3.5-2.71,11.06,11.06,0,0,1,4.87-1,11.06,11.06,0,0,1,4.87,1,10.3,10.3,0,0,1,3.5,2.71,11.59,11.59,0,0,1,2.11,3.91,15.38,15.38,0,0,1,0,9.19,11.59,11.59,0,0,1-2.11,3.91,10.12,10.12,0,0,1-3.5,2.7,11.21,11.21,0,0,1-4.87,1,11.21,11.21,0,0,1-4.87-1,10.1,10.1,0,0,1-3.5-2.7A11.58,11.58,0,0,1,.7,18.62a15.36,15.36,0,0,1,0-9.19Zm2.86,8.08A9.44,9.44,0,0,0,5,20.6,7.34,7.34,0,0,0,7.52,22.8a7.57,7.57,0,0,0,3.66.83,7.57,7.57,0,0,0,3.66-.83,7.36,7.36,0,0,0,2.52-2.21,9.46,9.46,0,0,0,1.44-3.09,13.47,13.47,0,0,0,0-7,9.46,9.46,0,0,0-1.44-3.09,7.36,7.36,0,0,0-2.52-2.21,7.57,7.57,0,0,0-3.66-.83,7.56,7.56,0,0,0-3.66.83A7.34,7.34,0,0,0,5,7.45a9.44,9.44,0,0,0-1.44,3.09,13.47,13.47,0,0,0,0,7Z"/><path class="cls-1" d="M29.26,2.35V23.08H41.62V25.7H26.16V2.35Z"/><path class="cls-1" d="M60.45,2.35V5h-13v7.42H59.57V15H47.44v8.08H60.55V25.7H44.33V2.35Z"/><path class="cls-1" d="M78.37,25.42a11,11,0,0,1-4.09.8,10.91,10.91,0,0,1-4.68-1,10.56,10.56,0,0,1-3.5-2.6,11.35,11.35,0,0,1-2.19-3.76,13.12,13.12,0,0,1-.75-4.41,16.55,16.55,0,0,1,.7-4.86,12,12,0,0,1,2.09-4,10.16,10.16,0,0,1,3.47-2.76,10.8,10.8,0,0,1,4.86-1,14.09,14.09,0,0,1,3.58.44,9.07,9.07,0,0,1,3,1.39A8.27,8.27,0,0,1,83.09,6a9.45,9.45,0,0,1,1.23,3.51H81.21a6.12,6.12,0,0,0-.85-2.31,5.47,5.47,0,0,0-1.54-1.59,6.8,6.8,0,0,0-2.08-.93,9.55,9.55,0,0,0-2.47-.31A7.1,7.1,0,0,0,68.15,7.5a9.77,9.77,0,0,0-1.42,3.17,14.57,14.57,0,0,0-.46,3.65,11.78,11.78,0,0,0,.52,3.51,9.17,9.17,0,0,0,1.54,3,7.53,7.53,0,0,0,2.5,2.06,7.41,7.41,0,0,0,3.45.77A8.32,8.32,0,0,0,77.52,23a6.66,6.66,0,0,0,3.83-4,8,8,0,0,0,.43-3H74.32V13.4H84.55V25.7h-2l-.82-2.91A7.77,7.77,0,0,1,78.37,25.42Z"/><path class="cls-1" d="M112.32,5.66a7.22,7.22,0,0,0-4.23-1.24,7.59,7.59,0,0,0-3.58.78,7.06,7.06,0,0,0-2.45,2.11,9.1,9.1,0,0,0-1.42,3,13.5,13.5,0,0,0-.46,3.53,15.1,15.1,0,0,0,.46,3.78,9,9,0,0,0,1.42,3.11,7,7,0,0,0,2.47,2.11,7.68,7.68,0,0,0,3.6.78,6.93,6.93,0,0,0,2.73-.51,6.18,6.18,0,0,0,2.06-1.41,6.47,6.47,0,0,0,1.36-2.14,8.9,8.9,0,0,0,.59-2.68H118a10.61,10.61,0,0,1-3,6.87,9.84,9.84,0,0,1-7.06,2.45,11.26,11.26,0,0,1-4.74-.93,9.31,9.31,0,0,1-3.37-2.57,11,11,0,0,1-2-3.86,16.44,16.44,0,0,1-.67-4.77,15.57,15.57,0,0,1,.72-4.79A11.54,11.54,0,0,1,99.9,5.39a9.82,9.82,0,0,1,3.47-2.63,11.17,11.17,0,0,1,4.76-1,12,12,0,0,1,3.47.49,9.31,9.31,0,0,1,2.91,1.44,8.09,8.09,0,0,1,2.13,2.37,8.7,8.7,0,0,1,1.11,3.29h-3.11A5.78,5.78,0,0,0,112.32,5.66Z"/><path class="cls-1" d="M124.93,2.35v10h12.29v-10h3.11V25.7h-3.11V15H124.93V25.7h-3.11V2.35Z"/><path class="cls-1" d="M161.68,24q-2.39,2.24-6.8,2.24a10.59,10.59,0,0,1-7-2.14q-2.53-2.14-2.53-6.82V2.35h3.11V17.26A6.33,6.33,0,0,0,150.07,22a6.62,6.62,0,0,0,4.81,1.62A6,6,0,0,0,159.4,22,6.62,6.62,0,0,0,161,17.26V2.35h3.11V17.26Q164.06,21.74,161.68,24Z"/><path class="cls-1" d="M180,2.35A7.69,7.69,0,0,1,185.23,4a5.63,5.63,0,0,1,1.88,4.48,7.09,7.09,0,0,1-1,3.73,5,5,0,0,1-3.09,2.19v.07a4.16,4.16,0,0,1,1.65.65,3.6,3.6,0,0,1,1,1.1,5,5,0,0,1,.56,1.42,15.22,15.22,0,0,1,.28,1.63q.06.85.1,1.73a15,15,0,0,0,.16,1.73,10.63,10.63,0,0,0,.38,1.62,4,4,0,0,0,.74,1.36h-3.47a2,2,0,0,1-.44-1,9.88,9.88,0,0,1-.15-1.39q0-.77-.07-1.65a11.31,11.31,0,0,0-.2-1.73q-.13-.85-.33-1.62a3.82,3.82,0,0,0-.62-1.34,3.08,3.08,0,0,0-1.11-.92,4.13,4.13,0,0,0-1.83-.34h-7.58v10H169V2.35Zm.65,10.59a4.48,4.48,0,0,0,1.72-.64A3.49,3.49,0,0,0,183.56,11,4.28,4.28,0,0,0,184,9a4.19,4.19,0,0,0-1-2.88A4,4,0,0,0,179.85,5h-7.72v8.14h6.47A12.47,12.47,0,0,0,180.67,12.95Z"/><path class="cls-1" d="M203.12,5.54a6.59,6.59,0,0,0-4-1.13,9.49,9.49,0,0,0-1.93.2,5.13,5.13,0,0,0-1.68.65,3.44,3.44,0,0,0-1.18,1.23,3.8,3.8,0,0,0-.44,1.91,2.44,2.44,0,0,0,.64,1.75,4.72,4.72,0,0,0,1.7,1.1,14.23,14.23,0,0,0,2.4.7q1.34.28,2.73.6t2.73.77a9,9,0,0,1,2.4,1.19,5.68,5.68,0,0,1,1.7,1.9,5.85,5.85,0,0,1,.64,2.88,5.85,5.85,0,0,1-.83,3.19,6.87,6.87,0,0,1-2.14,2.16A9.31,9.31,0,0,1,203,25.85a14.2,14.2,0,0,1-3.22.38,13.68,13.68,0,0,1-3.71-.49,9.16,9.16,0,0,1-3.07-1.49,7,7,0,0,1-2.09-2.55,8.2,8.2,0,0,1-.77-3.68H193a5.27,5.27,0,0,0,.57,2.53,5.19,5.19,0,0,0,1.5,1.75,6.34,6.34,0,0,0,2.17,1,10,10,0,0,0,2.55.33,11.58,11.58,0,0,0,2.11-.2,6.22,6.22,0,0,0,1.91-.67,3.59,3.59,0,0,0,1.9-3.38,2.93,2.93,0,0,0-.64-2,4.69,4.69,0,0,0-1.7-1.23,12.48,12.48,0,0,0-2.4-.77l-2.73-.6q-1.39-.31-2.73-.72a9.84,9.84,0,0,1-2.4-1.08,5.16,5.16,0,0,1-1.7-1.73,5.1,5.1,0,0,1-.64-2.66,6.19,6.19,0,0,1,.72-3.06,6.28,6.28,0,0,1,1.91-2.12,8.6,8.6,0,0,1,2.71-1.24,12,12,0,0,1,3.12-.41,12.49,12.49,0,0,1,3.33.43,7.58,7.58,0,0,1,2.7,1.34,6.47,6.47,0,0,1,1.83,2.31,8.23,8.23,0,0,1,.74,3.32h-2.94A4.87,4.87,0,0,0,203.12,5.54Z"/><path class="cls-1" d="M215.85,2.35V25.7h-3.11V2.35Z"/><path class="cls-1" d="M224.35,2.35l12.29,18.93h.07V2.35h2.94V25.7h-3.4L224.06,7H224V25.7H221V2.35Z"/><path class="cls-1" d="M256,0V32.66h-2.22V0Z"/><path class="cls-2" d="M267.64,5V2.35h18.67V5h-7.78V25.7h-3.11V5Z"/><path class="cls-2" d="M299.88,2.35A7.69,7.69,0,0,1,305.09,4,5.63,5.63,0,0,1,307,8.47a7.09,7.09,0,0,1-1,3.73,5,5,0,0,1-3.09,2.19v.07a4.16,4.16,0,0,1,1.65.65,3.6,3.6,0,0,1,1,1.1,5,5,0,0,1,.56,1.42,15.22,15.22,0,0,1,.28,1.63q.06.85.1,1.73a15,15,0,0,0,.16,1.73,10.63,10.63,0,0,0,.38,1.62,4,4,0,0,0,.74,1.36h-3.47a2,2,0,0,1-.44-1,9.88,9.88,0,0,1-.15-1.39q0-.77-.07-1.65a11.31,11.31,0,0,0-.2-1.73q-.13-.85-.33-1.62a3.82,3.82,0,0,0-.62-1.34,3.08,3.08,0,0,0-1.11-.92,4.13,4.13,0,0,0-1.83-.34H292v10h-3.11V2.35Zm.65,10.59a4.48,4.48,0,0,0,1.72-.64A3.49,3.49,0,0,0,303.42,11,4.28,4.28,0,0,0,303.86,9a4.19,4.19,0,0,0-1-2.88A4,4,0,0,0,299.71,5H292v8.14h6.47A12.47,12.47,0,0,0,300.53,12.95Z"/><path class="cls-2" d="M321.06,2.35l9.12,23.34h-3.43l-2.55-7h-9.87l-2.62,7h-3.17l9.09-23.34Zm2.16,13.7L319.33,5.17h-.06l-4,10.89Z"/><path class="cls-2" d="M336.63,25.7,328.42,2.35h3.33l6.67,20.24h.07l6.74-20.24h3.24l-8.3,23.34Z"/><path class="cls-2" d="M367.06,2.35V5h-13v7.42h12.13V15H354.05v8.08h13.11V25.7H350.95V2.35Z"/><path class="cls-2" d="M374,2.35V23.08h12.36V25.7H370.92V2.35Z"/><path class="cls-2" d="M408.42,2.35a7.25,7.25,0,0,1,5.35,1.81,6.88,6.88,0,0,1,1.81,5.08,6.93,6.93,0,0,1-1.81,5.1,7.11,7.11,0,0,1-5.35,1.8H401.3V25.7h-3.11V2.35Zm-1,11.18a5.55,5.55,0,0,0,3.88-1.08,4.1,4.1,0,0,0,1.23-3.2,4.05,4.05,0,0,0-1.23-3.19A5.71,5.71,0,0,0,407.38,5H401.3v8.57Z"/><path class="cls-2" d="M422.48,2.35v10h12.29v-10h3.11V25.7h-3.11V15H422.48V25.7h-3.11V2.35Z"/><path class="cls-2" d="M442.38,9.43a11.57,11.57,0,0,1,2.11-3.91A10.28,10.28,0,0,1,448,2.81a12.21,12.21,0,0,1,9.74,0,10.3,10.3,0,0,1,3.5,2.71,11.59,11.59,0,0,1,2.11,3.91,15.38,15.38,0,0,1,0,9.19,11.59,11.59,0,0,1-2.11,3.91,10.12,10.12,0,0,1-3.5,2.7,12.4,12.4,0,0,1-9.74,0,10.1,10.1,0,0,1-3.5-2.7,11.58,11.58,0,0,1-2.11-3.91,15.36,15.36,0,0,1,0-9.19Zm2.86,8.08a9.44,9.44,0,0,0,1.44,3.09,7.34,7.34,0,0,0,2.52,2.21,8.46,8.46,0,0,0,7.32,0A7.36,7.36,0,0,0,459,20.6a9.46,9.46,0,0,0,1.44-3.09,13.47,13.47,0,0,0,0-7A9.46,9.46,0,0,0,459,7.45a7.36,7.36,0,0,0-2.52-2.21,8.46,8.46,0,0,0-7.32,0,7.34,7.34,0,0,0-2.52,2.21,9.44,9.44,0,0,0-1.44,3.09,13.47,13.47,0,0,0,0,7Z"/><path class="cls-2" d="M465.34,5V2.35H484V5h-7.78V25.7h-3.11V5Z"/><path class="cls-2" d="M486,9.43a11.57,11.57,0,0,1,2.11-3.91,10.28,10.28,0,0,1,3.5-2.71,12.21,12.21,0,0,1,9.74,0,10.3,10.3,0,0,1,3.5,2.71,11.59,11.59,0,0,1,2.11,3.91,15.38,15.38,0,0,1,0,9.19,11.59,11.59,0,0,1-2.11,3.91,10.12,10.12,0,0,1-3.5,2.7,12.4,12.4,0,0,1-9.74,0,10.1,10.1,0,0,1-3.5-2.7A11.58,11.58,0,0,1,486,18.62a15.36,15.36,0,0,1,0-9.19Zm2.86,8.08a9.44,9.44,0,0,0,1.44,3.09,7.34,7.34,0,0,0,2.52,2.21,8.46,8.46,0,0,0,7.32,0,7.36,7.36,0,0,0,2.52-2.21,9.46,9.46,0,0,0,1.44-3.09,13.47,13.47,0,0,0,0-7,9.46,9.46,0,0,0-1.44-3.09,7.36,7.36,0,0,0-2.52-2.21,8.46,8.46,0,0,0-7.32,0,7.34,7.34,0,0,0-2.52,2.21,9.44,9.44,0,0,0-1.44,3.09,13.47,13.47,0,0,0,0,7Z"/><path class="cls-2" d="M525.5,25.42a11,11,0,0,1-4.09.8,10.91,10.91,0,0,1-4.68-1,10.56,10.56,0,0,1-3.5-2.6,11.35,11.35,0,0,1-2.19-3.76,13.12,13.12,0,0,1-.75-4.41,16.55,16.55,0,0,1,.7-4.86,12,12,0,0,1,2.09-4,10.16,10.16,0,0,1,3.47-2.76,10.8,10.8,0,0,1,4.86-1,14.09,14.09,0,0,1,3.58.44,9.07,9.07,0,0,1,3,1.39A8.27,8.27,0,0,1,530.23,6a9.45,9.45,0,0,1,1.23,3.51h-3.11a6.12,6.12,0,0,0-.85-2.31A5.47,5.47,0,0,0,526,5.66a6.8,6.8,0,0,0-2.08-.93,9.55,9.55,0,0,0-2.47-.31,7.1,7.1,0,0,0-6.13,3.09,9.77,9.77,0,0,0-1.42,3.17,14.57,14.57,0,0,0-.46,3.65,11.78,11.78,0,0,0,.52,3.51,9.17,9.17,0,0,0,1.54,3,7.53,7.53,0,0,0,2.5,2.06,7.41,7.41,0,0,0,3.45.77,8.32,8.32,0,0,0,3.24-.59,6.66,6.66,0,0,0,3.83-4,8,8,0,0,0,.43-3h-7.46V13.4h10.23V25.7h-2l-.82-2.91A7.77,7.77,0,0,1,525.5,25.42Z"/><path class="cls-2" d="M547.25,2.35A7.69,7.69,0,0,1,552.46,4a5.63,5.63,0,0,1,1.88,4.48,7.09,7.09,0,0,1-1,3.73,5,5,0,0,1-3.09,2.19v.07a4.16,4.16,0,0,1,1.65.65,3.6,3.6,0,0,1,1,1.1,5,5,0,0,1,.56,1.42,15.22,15.22,0,0,1,.28,1.63q.06.85.1,1.73a15,15,0,0,0,.16,1.73,10.63,10.63,0,0,0,.38,1.62,4,4,0,0,0,.74,1.36h-3.47a2,2,0,0,1-.44-1,9.88,9.88,0,0,1-.15-1.39q0-.77-.07-1.65a11.31,11.31,0,0,0-.2-1.73q-.13-.85-.33-1.62a3.82,3.82,0,0,0-.62-1.34,3.08,3.08,0,0,0-1.11-.92,4.13,4.13,0,0,0-1.83-.34h-7.58v10h-3.11V2.35Zm.65,10.59a4.48,4.48,0,0,0,1.72-.64A3.49,3.49,0,0,0,550.79,11,4.28,4.28,0,0,0,551.23,9a4.19,4.19,0,0,0-1-2.88A4,4,0,0,0,547.08,5h-7.72v8.14h6.47A12.47,12.47,0,0,0,547.9,12.95Z"/><path class="cls-2" d="M568.43,2.35l9.12,23.34h-3.43l-2.55-7H561.7l-2.62,7h-3.17L565,2.35Zm2.16,13.7L566.7,5.17h-.06l-4,10.89Z"/><path class="cls-2" d="M590.08,2.35a7.25,7.25,0,0,1,5.35,1.81,6.88,6.88,0,0,1,1.81,5.08,6.93,6.93,0,0,1-1.81,5.1,7.11,7.11,0,0,1-5.35,1.8h-7.13V25.7h-3.11V2.35Zm-1,11.18a5.55,5.55,0,0,0,3.88-1.08,4.1,4.1,0,0,0,1.23-3.2,4.05,4.05,0,0,0-1.23-3.19A5.71,5.71,0,0,0,589,5h-6.08v8.57Z"/><path class="cls-2" d="M604.13,2.35v10h12.29v-10h3.11V25.7h-3.11V15H604.13V25.7H601V2.35Z"/><path class="cls-2" d="M634.28,25.7h-3.11V16.15l-9-13.8h3.69l7,11.12,6.83-11.12h3.53l-8.93,13.8Z"/></g></g></svg>