<svg xmlns="http://www.w3.org/2000/svg" viewBox="0 0 702.02 128.29"><defs><style>.cls-1{fill:#fff;}</style></defs><title>oleg-chursin-travel-photography-logo-white</title><g id="Layer_2" data-name="Layer 2"><g id="Layer_1-2" data-name="Layer 1"><path class="cls-1" d="M32.28,0A31.33,31.33,0,0,1,45.82,2.83,30.33,30.33,0,0,1,56,10.48a34,34,0,0,1,6.37,11.23,41.35,41.35,0,0,1,2.22,13.59A41.62,41.62,0,0,1,62.33,49,34,34,0,0,1,56,60.21a29.79,29.79,0,0,1-10.15,7.6,31.8,31.8,0,0,1-13.54,2.78,31.79,31.79,0,0,1-13.54-2.78,29.77,29.77,0,0,1-10.14-7.6A33.94,33.94,0,0,1,2.22,49,41.6,41.6,0,0,1,0,35.29,41.32,41.32,0,0,1,2.22,21.71,34,34,0,0,1,8.59,10.48,30.31,30.31,0,0,1,18.73,2.83,31.32,31.32,0,0,1,32.28,0Zm0,9.63A18.89,18.89,0,0,0,23,11.8a18.24,18.24,0,0,0-6.37,5.8A26.15,26.15,0,0,0,13,25.86a38.34,38.34,0,0,0,0,18.87A26.12,26.12,0,0,0,16.61,53,18.22,18.22,0,0,0,23,58.79,18.88,18.88,0,0,0,32.28,61a18.88,18.88,0,0,0,9.29-2.17A18.23,18.23,0,0,0,47.94,53a26.18,26.18,0,0,0,3.63-8.26,38.34,38.34,0,0,0,0-18.87,26.22,26.22,0,0,0-3.63-8.26,18.25,18.25,0,0,0-6.37-5.8A18.89,18.89,0,0,0,32.28,9.63Z"/><path class="cls-1" d="M75.31,1.6H87.1V58.79h34.26V69H75.31Z"/><path class="cls-1" d="M129.48,1.6H178V11.8H141.27V29.44h34v9.63h-34V58.79h37.37V69H129.48Z"/><path class="cls-1" d="M247.72,69h-7.55l-1.79-7.93a28,28,0,0,1-9.44,7.46,26.74,26.74,0,0,1-10.85,2.08,31.78,31.78,0,0,1-13.54-2.78,29.76,29.76,0,0,1-10.15-7.6A34,34,0,0,1,188,49a41.6,41.6,0,0,1-2.22-13.68A41.32,41.32,0,0,1,188,21.71a34,34,0,0,1,6.37-11.23,30.31,30.31,0,0,1,10.15-7.64A31.31,31.31,0,0,1,218.09,0a36.66,36.66,0,0,1,10.43,1.46,27.9,27.9,0,0,1,8.82,4.34A24.07,24.07,0,0,1,243.76,13,25.33,25.33,0,0,1,247,23H235.45a14.46,14.46,0,0,0-5.95-10,17.16,17.16,0,0,0-5.29-2.55,21.89,21.89,0,0,0-6.13-.85,18.89,18.89,0,0,0-9.3,2.17,18.24,18.24,0,0,0-6.37,5.8,26.17,26.17,0,0,0-3.63,8.26,38.34,38.34,0,0,0,0,18.87A26.14,26.14,0,0,0,202.42,53a18.22,18.22,0,0,0,6.37,5.8,18.88,18.88,0,0,0,9.3,2.17,22,22,0,0,0,8-1.18A15.93,15.93,0,0,0,232,56.1a15.44,15.44,0,0,0,3.63-5.9A24.94,24.94,0,0,0,237,42.47H219v-9h28.69Z"/><path class="cls-1" d="M332.28,23a24,24,0,0,0-2.08-5.38,14.92,14.92,0,0,0-3.4-4.25,15.13,15.13,0,0,0-4.86-2.78,19.25,19.25,0,0,0-6.46-1,18.89,18.89,0,0,0-9.3,2.17,18.24,18.24,0,0,0-6.37,5.8,26.15,26.15,0,0,0-3.63,8.26,38.34,38.34,0,0,0,0,18.87A26.12,26.12,0,0,0,299.81,53a18.22,18.22,0,0,0,6.37,5.8,18.88,18.88,0,0,0,9.3,2.17,16.76,16.76,0,0,0,7-1.37,15.55,15.55,0,0,0,5.19-3.77,17.77,17.77,0,0,0,3.4-5.61,27,27,0,0,0,1.6-6.89h11.51a32,32,0,0,1-2.59,11,27.08,27.08,0,0,1-6,8.63,26.47,26.47,0,0,1-8.87,5.62,30.74,30.74,0,0,1-11.23,2,31.79,31.79,0,0,1-13.54-2.78,29.77,29.77,0,0,1-10.14-7.6A33.94,33.94,0,0,1,285.42,49a41.6,41.6,0,0,1-2.22-13.68,41.32,41.32,0,0,1,2.22-13.59,34,34,0,0,1,6.37-11.23,30.31,30.31,0,0,1,10.14-7.64A31.32,31.32,0,0,1,315.48,0a35.69,35.69,0,0,1,10.66,1.56A27.57,27.57,0,0,1,335,6.09a23.53,23.53,0,0,1,6.18,7.22A25.14,25.14,0,0,1,344.08,23Z"/><path class="cls-1" d="M354.64,1.6h11.8v26.8h30.67V1.6h11.8V69h-11.8V38.6H366.44V69h-11.8Z"/><path class="cls-1" d="M422.31,1.6h11.8V40.86q0,3.4.33,6.89A15.72,15.72,0,0,0,436.32,54,12,12,0,0,0,441,58.6Q444.2,60.4,450,60.4t8.92-1.79A12,12,0,0,0,463.59,54a15.74,15.74,0,0,0,1.89-6.28q.33-3.49.33-6.89V1.6h11.8V44.73a29.62,29.62,0,0,1-2,11.32A21.81,21.81,0,0,1,470,64.13,23.41,23.41,0,0,1,461.28,69a40.77,40.77,0,0,1-22.65,0,23.41,23.41,0,0,1-8.73-4.86,21.8,21.8,0,0,1-5.61-8.07,29.62,29.62,0,0,1-2-11.32Z"/><path class="cls-1" d="M491.2,1.6h32.18q11.13,0,16.7,4.81t5.57,13.4a19.57,19.57,0,0,1-1.42,8,17.38,17.38,0,0,1-3.3,5.1,12.91,12.91,0,0,1-3.73,2.78q-1.84.85-2.69,1.13V37a12.08,12.08,0,0,1,3.26.94A9.64,9.64,0,0,1,541,40.34a13.13,13.13,0,0,1,2.5,4.29,19,19,0,0,1,1,6.61,59.69,59.69,0,0,0,.9,10.81q.9,4.86,2.78,6.94H535.55A11,11,0,0,1,534,64.17q-.24-2.64-.24-5.1a48.66,48.66,0,0,0-.57-8,14,14,0,0,0-2.08-5.57A8.81,8.81,0,0,0,527,42.28a18.13,18.13,0,0,0-6.65-1H503V69H491.2ZM503,32.27h19.35q5.66,0,8.59-2.69t2.93-8.07a12.51,12.51,0,0,0-.94-5.24,7.64,7.64,0,0,0-2.6-3.16,9.55,9.55,0,0,0-3.77-1.51,25.15,25.15,0,0,0-4.39-.38H503Z"/><path class="cls-1" d="M565.37,46.52a15.08,15.08,0,0,0,1.32,6.61,11.92,11.92,0,0,0,3.68,4.48,15.66,15.66,0,0,0,5.43,2.55,26.21,26.21,0,0,0,6.65.8,21.34,21.34,0,0,0,6.61-.9,13.36,13.36,0,0,0,4.44-2.31,8.37,8.37,0,0,0,2.45-3.26,9.75,9.75,0,0,0,.75-3.73q0-3.87-1.75-5.71a10,10,0,0,0-3.82-2.6,80.36,80.36,0,0,0-8.35-2.5Q578,38.79,571,36.9a25.17,25.17,0,0,1-7.22-3,17.21,17.21,0,0,1-4.58-4.1A14.43,14.43,0,0,1,556.83,25a19.31,19.31,0,0,1-.71-5.19A17.54,17.54,0,0,1,558.25,11a18.9,18.9,0,0,1,5.62-6.18,24.7,24.7,0,0,1,7.93-3.63,34.75,34.75,0,0,1,9-1.18,35.29,35.29,0,0,1,10,1.37,24.58,24.58,0,0,1,8.21,4.1,20.13,20.13,0,0,1,5.62,6.75,20,20,0,0,1,2.08,9.3h-11.8q-.47-6.51-4.44-9.2a17.61,17.61,0,0,0-10.1-2.69,22.08,22.08,0,0,0-4.25.42,13.48,13.48,0,0,0-4,1.42,8.68,8.68,0,0,0-3,2.69,7.26,7.26,0,0,0-1.18,4.25A7.22,7.22,0,0,0,570.14,24a14.33,14.33,0,0,0,5.8,3.07l3,.8,5.8,1.56L591,31.1q3.07.8,4.39,1.18a19.73,19.73,0,0,1,5.76,2.83,18.2,18.2,0,0,1,4.1,4.1,17,17,0,0,1,2.45,5,18.14,18.14,0,0,1,.8,5.29,19.07,19.07,0,0,1-2.31,9.67,19.64,19.64,0,0,1-6.09,6.56,26.47,26.47,0,0,1-8.59,3.73,41.12,41.12,0,0,1-9.81,1.18,40.4,40.4,0,0,1-10.85-1.42A25.39,25.39,0,0,1,562,64.83a21.21,21.21,0,0,1-6-7.5,25,25,0,0,1-2.36-10.81Z"/><path class="cls-1" d="M618.78,1.6h11.8V69h-11.8Z"/><path class="cls-1" d="M644.55,1.6H657l30.77,49.64H688V1.6h11.23V69H686.73L656.06,19.44h-.28V69H644.55Z"/><path class="cls-1" d="M6.88,84.72H41.34v6.44H27.81v36.12H20.36V91.15H6.88Z"/><path class="cls-1" d="M46.28,84.72H66.61q7,0,10.55,3a10.59,10.59,0,0,1,3.52,8.46,12.35,12.35,0,0,1-.89,5,11,11,0,0,1-2.09,3.22,8.17,8.17,0,0,1-2.35,1.76q-1.16.54-1.7.71v.12a7.62,7.62,0,0,1,2.06.6,6.09,6.09,0,0,1,2.06,1.52,8.29,8.29,0,0,1,1.58,2.71,12,12,0,0,1,.63,4.17,37.73,37.73,0,0,0,.57,6.83,9,9,0,0,0,1.76,4.38h-8a6.93,6.93,0,0,1-1-3q-.15-1.67-.15-3.22a30.72,30.72,0,0,0-.36-5,8.8,8.8,0,0,0-1.31-3.52,5.57,5.57,0,0,0-2.59-2.06,11.46,11.46,0,0,0-4.2-.66h-11v17.52H46.28Zm7.45,19.37H66a7.76,7.76,0,0,0,5.42-1.7,6.59,6.59,0,0,0,1.85-5.1,7.9,7.9,0,0,0-.6-3.31A4.83,4.83,0,0,0,71,92a6,6,0,0,0-2.38-1,15.89,15.89,0,0,0-2.77-.24H53.74Z"/><path class="cls-1" d="M99.63,84.72h7.93L124,127.28h-8L112,116H95l-4,11.27H83.3ZM97,110.35h13L103.63,92h-.18Z"/><path class="cls-1" d="M119.48,84.72h7.75L137.9,118.4H138l10.91-33.68h7.57L142,127.28h-8.29Z"/><path class="cls-1" d="M160.73,84.72h30.64v6.44H168.18V102.3h21.46v6.08H168.18v12.46h23.6v6.44H160.73Z"/><path class="cls-1" d="M198.28,84.72h7.45v36.12h21.64v6.44H198.28Z"/><path class="cls-1" d="M249.07,84.72h18.78A17.85,17.85,0,0,1,275.23,86a11.66,11.66,0,0,1,4.41,3.28,11.14,11.14,0,0,1,2.12,4.29,18.26,18.26,0,0,1,.57,4.29,17.88,17.88,0,0,1-.57,4.26,11.15,11.15,0,0,1-2.12,4.26,11.4,11.4,0,0,1-4.41,3.25,18.19,18.19,0,0,1-7.39,1.28H256.52v16.33h-7.45Zm7.45,20.15h10.91a9.72,9.72,0,0,0,2.56-.36,7.35,7.35,0,0,0,2.41-1.16,6,6,0,0,0,1.79-2.15,7.36,7.36,0,0,0,.69-3.37,8.73,8.73,0,0,0-.6-3.46,5.54,5.54,0,0,0-1.61-2.18,5.75,5.75,0,0,0-2.33-1.1,12.65,12.65,0,0,0-2.8-.3h-11Z"/><path class="cls-1" d="M288.64,84.72h7.45v16.93h19.37V84.72h7.45v42.56h-7.45V108.08H296.09v19.19h-7.45Z"/><path class="cls-1" d="M350,83.7a19.78,19.78,0,0,1,8.55,1.79,19.15,19.15,0,0,1,6.41,4.83,21.49,21.49,0,0,1,4,7.09,27.19,27.19,0,0,1,0,17.23,21.47,21.47,0,0,1-4,7.09,18.81,18.81,0,0,1-6.41,4.8,21.68,21.68,0,0,1-17.11,0,18.8,18.8,0,0,1-6.41-4.8,21.42,21.42,0,0,1-4-7.09,27.17,27.17,0,0,1,0-17.23,21.44,21.44,0,0,1,4-7.09,19.14,19.14,0,0,1,6.41-4.83A19.78,19.78,0,0,1,350,83.7Zm0,6.08a11.93,11.93,0,0,0-5.87,1.37,11.52,11.52,0,0,0-4,3.67,16.51,16.51,0,0,0-2.29,5.22,24.21,24.21,0,0,0,0,11.92,16.49,16.49,0,0,0,2.29,5.22,11.51,11.51,0,0,0,4,3.67,13.26,13.26,0,0,0,11.74,0,11.52,11.52,0,0,0,4-3.67,16.58,16.58,0,0,0,2.29-5.22,24.21,24.21,0,0,0,0-11.92,16.6,16.6,0,0,0-2.29-5.22,11.54,11.54,0,0,0-4-3.67A11.94,11.94,0,0,0,350,89.78Z"/><path class="cls-1" d="M373.11,84.72h34.45v6.44H394v36.12h-7.45V91.15H373.11Z"/><path class="cls-1" d="M430.63,83.7a19.78,19.78,0,0,1,8.55,1.79,19.15,19.15,0,0,1,6.41,4.83,21.49,21.49,0,0,1,4,7.09,27.19,27.19,0,0,1,0,17.23,21.47,21.47,0,0,1-4,7.09,18.81,18.81,0,0,1-6.41,4.8,21.68,21.68,0,0,1-17.11,0,18.8,18.8,0,0,1-6.41-4.8,21.42,21.42,0,0,1-4-7.09,27.17,27.17,0,0,1,0-17.23,21.44,21.44,0,0,1,4-7.09,19.14,19.14,0,0,1,6.41-4.83A19.78,19.78,0,0,1,430.63,83.7Zm0,6.08a11.93,11.93,0,0,0-5.87,1.37,11.52,11.52,0,0,0-4,3.67,16.51,16.51,0,0,0-2.29,5.22,24.21,24.21,0,0,0,0,11.92,16.49,16.49,0,0,0,2.29,5.22,11.51,11.51,0,0,0,4,3.67,13.26,13.26,0,0,0,11.74,0,11.52,11.52,0,0,0,4-3.67,16.58,16.58,0,0,0,2.29-5.22,24.21,24.21,0,0,0,0-11.92,16.6,16.6,0,0,0-2.29-5.22,11.54,11.54,0,0,0-4-3.67A11.94,11.94,0,0,0,430.63,89.78Z"/><path class="cls-1" d="M494.94,127.28h-4.77l-1.13-5a17.73,17.73,0,0,1-6,4.71,16.9,16.9,0,0,1-6.85,1.31,20.07,20.07,0,0,1-8.55-1.76,18.79,18.79,0,0,1-6.41-4.8,21.44,21.44,0,0,1-4-7.09,27.19,27.19,0,0,1,0-17.23,21.46,21.46,0,0,1,4-7.09,19.13,19.13,0,0,1,6.41-4.83,19.78,19.78,0,0,1,8.55-1.79,23.15,23.15,0,0,1,6.59.92,17.62,17.62,0,0,1,5.57,2.74,15.22,15.22,0,0,1,4.05,4.56,16,16,0,0,1,2,6.32h-7.27a9.13,9.13,0,0,0-3.76-6.32,10.84,10.84,0,0,0-3.34-1.61,13.84,13.84,0,0,0-3.87-.54,11.93,11.93,0,0,0-5.87,1.37,11.52,11.52,0,0,0-4,3.67A16.56,16.56,0,0,0,464,100,24.21,24.21,0,0,0,464,112a16.54,16.54,0,0,0,2.29,5.22,11.51,11.51,0,0,0,4,3.67,11.93,11.93,0,0,0,5.87,1.37,13.88,13.88,0,0,0,5.07-.75,10.07,10.07,0,0,0,3.73-2.33,9.76,9.76,0,0,0,2.29-3.73,15.76,15.76,0,0,0,.83-4.89H476.82v-5.66h18.12Z"/><path class="cls-1" d="M503,84.72h20.33q7,0,10.55,3a10.59,10.59,0,0,1,3.52,8.46,12.35,12.35,0,0,1-.89,5,11,11,0,0,1-2.09,3.22,8.17,8.17,0,0,1-2.35,1.76q-1.16.54-1.7.71v.12a7.62,7.62,0,0,1,2.06.6,6.09,6.09,0,0,1,2.06,1.52,8.29,8.29,0,0,1,1.58,2.71,12,12,0,0,1,.63,4.17,37.73,37.73,0,0,0,.57,6.83,9,9,0,0,0,1.76,4.38h-8a6.93,6.93,0,0,1-1-3q-.15-1.67-.15-3.22a30.72,30.72,0,0,0-.36-5,8.8,8.8,0,0,0-1.31-3.52,5.57,5.57,0,0,0-2.59-2.06,11.46,11.46,0,0,0-4.2-.66h-11v17.52H503Zm7.45,19.37h12.22a7.76,7.76,0,0,0,5.42-1.7,6.59,6.59,0,0,0,1.85-5.1,7.9,7.9,0,0,0-.6-3.31,4.83,4.83,0,0,0-1.64-2,6,6,0,0,0-2.38-1,15.89,15.89,0,0,0-2.77-.24H510.5Z"/><path class="cls-1" d="M556.4,84.72h7.93l16.39,42.56h-8l-4-11.27h-17l-4,11.27h-7.69Zm-2.62,25.63h13L560.39,92h-.18Z"/><path class="cls-1" d="M584.77,84.72h18.78A17.85,17.85,0,0,1,610.94,86a11.66,11.66,0,0,1,4.41,3.28,11.14,11.14,0,0,1,2.12,4.29,18.26,18.26,0,0,1,.57,4.29,17.88,17.88,0,0,1-.57,4.26,11.15,11.15,0,0,1-2.12,4.26,11.4,11.4,0,0,1-4.41,3.25,18.19,18.19,0,0,1-7.39,1.28H592.22v16.33h-7.45Zm7.45,20.15h10.91a9.72,9.72,0,0,0,2.56-.36,7.35,7.35,0,0,0,2.41-1.16,6,6,0,0,0,1.79-2.15,7.36,7.36,0,0,0,.69-3.37,8.73,8.73,0,0,0-.6-3.46,5.54,5.54,0,0,0-1.61-2.18A5.75,5.75,0,0,0,606,91.1a12.65,12.65,0,0,0-2.8-.3h-11Z"/><path class="cls-1" d="M624.35,84.72h7.45v16.93h19.37V84.72h7.45v42.56h-7.45V108.08H631.8v19.19h-7.45Z"/><path class="cls-1" d="M678.65,110.59l-16-25.87h8.64l11.27,19.07,11.09-19.07H702L686.1,110.59v16.69h-7.45Z"/></g></g></svg>